<svg width="817" height="561" viewBox="0 0 817 561" fill="none" xmlns="http://www.w3.org/2000/svg">
<g filter="url(#filter0_f_15_108)">
<path fill-rule="evenodd" clip-rule="evenodd" d="M393.838 453.679C357.755 463.28 320.502 460.609 283.469 454.863C226.725 446.057 155.196 454.083 121.052 411.348C88.1697 370.193 96.1568 302.575 128.763 261.234C161.64 219.551 237.405 237.978 282.146 207.099C312.504 186.147 305.168 136.666 336.929 117.567C371.003 97.0753 415.078 98.0808 455.414 102.902C500.725 108.318 542.328 124.322 581.021 146.742C632.215 176.405 727.39 198.982 715.677 253.703C701.753 318.751 595.904 319.539 536.15 356.368C512.094 371.195 492.937 389.42 469.695 405.312C444.491 422.547 423.98 445.659 393.838 453.679Z" fill="url(#paint0_linear_15_108)"/>
</g>
<defs>
<filter id="filter0_f_15_108" x="0" y="0" width="816.666" height="560.04" filterUnits="userSpaceOnUse" color-interpolation-filters="sRGB">
<feFlood flood-opacity="0" result="BackgroundImageFix"/>
<feBlend mode="normal" in="SourceGraphic" in2="BackgroundImageFix" result="shape"/>
<feGaussianBlur stdDeviation="50" result="effect1_foregroundBlur_15_108"/>
</filter>
<linearGradient id="paint0_linear_15_108" x1="331.423" y1="445.65" x2="422.479" y2="103.768" gradientUnits="userSpaceOnUse">
<stop stop-color="#6823FF"/>
<stop offset="1" stop-color="white" stop-opacity="0"/>
</linearGradient>
</defs>
</svg>
