<svg width="166" height="35" viewBox="0 0 166 35" fill="none" xmlns="http://www.w3.org/2000/svg">
<path d="M1.5 27C0.513333 27 0.0200001 26.5067 0.0200001 25.52V1.8C0.0200001 0.813331 0.513333 0.319998 1.5 0.319998C2.15333 0.319998 2.69333 0.639998 3.12 1.28L12.74 15.82L12.1 15.92L21.76 1.28C22.16 0.639998 22.7533 0.319998 23.54 0.319998C24.3533 0.319998 24.76 0.813331 24.76 1.8V25.52C24.76 26.5067 24.2733 27 23.3 27C22.3133 27 21.82 26.5067 21.82 25.52V4.74L22.72 5.04L14.04 17.98C13.6133 18.6067 13.02 18.92 12.26 18.92C11.7 18.92 11.2067 18.6067 10.78 17.98L2.1 5.04L2.96 5.3V25.52C2.96 26.5067 2.47333 27 1.5 27ZM49.0734 7.18C50.0601 7.18 50.5534 7.66667 50.5534 8.64V25.52C50.5534 26.5067 50.0601 27 49.0734 27C48.1001 27 47.6134 26.5067 47.6134 25.52V24.46C46.2401 26.1533 44.0868 27 41.1534 27H40.0334C37.4334 27 35.5134 26.38 34.2734 25.14C33.0334 23.8867 32.4134 21.96 32.4134 19.36V8.64C32.4134 7.66667 32.9001 7.18 33.8734 7.18C34.8601 7.18 35.3534 7.66667 35.3534 8.64V19.36C35.3534 21.16 35.6868 22.3933 36.3534 23.06C37.0334 23.7267 38.2601 24.06 40.0334 24.06H41.1534C42.9134 24.06 44.3868 23.8267 45.5734 23.36C46.7601 22.88 47.4401 22.1533 47.6134 21.18V8.64C47.6134 7.66667 48.1001 7.18 49.0734 7.18ZM63.1347 26.98C61.4547 26.98 60.1414 26.6333 59.1947 25.94C58.248 25.2333 57.6547 24.1733 57.4147 22.76C57.3347 22.28 57.428 21.9 57.6947 21.62C57.9747 21.34 58.3614 21.2 58.8547 21.2C59.3214 21.2 59.6614 21.32 59.8747 21.56C60.1014 21.8 60.2814 22.16 60.4147 22.64C60.5614 23.1867 60.8414 23.56 61.2547 23.76C61.668 23.9467 62.2947 24.04 63.1347 24.04H69.6947C70.8014 24.04 71.548 23.8533 71.9347 23.48C72.3347 23.0933 72.5347 22.3333 72.5347 21.2C72.5347 20.0667 72.3347 19.3067 71.9347 18.92C71.548 18.5333 70.8014 18.34 69.6947 18.34H63.2347C61.3814 18.34 59.988 17.88 59.0547 16.96C58.1214 16.0267 57.6547 14.6333 57.6547 12.78C57.6547 10.8867 58.108 9.48 59.0147 8.56C59.9347 7.62667 61.3414 7.16 63.2347 7.16H69.4947C72.588 7.16 74.3814 8.48667 74.8747 11.14C74.9547 11.6333 74.8547 12.0133 74.5747 12.28C74.308 12.5467 73.928 12.68 73.4347 12.68C72.9814 12.68 72.6414 12.56 72.4147 12.32C72.188 12.08 72.0147 11.74 71.8947 11.3C71.7614 10.8333 71.508 10.52 71.1347 10.36C70.7747 10.1867 70.228 10.1 69.4947 10.1H63.2347C62.168 10.1 61.4614 10.2733 61.1147 10.62C60.768 10.9667 60.5947 11.6867 60.5947 12.78C60.5947 13.7933 60.7747 14.4867 61.1347 14.86C61.508 15.22 62.208 15.4 63.2347 15.4H69.6947C71.6414 15.4 73.088 15.88 74.0347 16.84C74.9947 17.8 75.4747 19.2533 75.4747 21.2C75.4747 23.1467 74.9947 24.6 74.0347 25.56C73.088 26.5067 71.6414 26.98 69.6947 26.98H63.1347ZM90.6047 27C88.0314 27 86.138 26.3933 84.9247 25.18C83.7114 23.9667 83.1047 22.08 83.1047 19.52V10.12H81.0047C80.018 10.12 79.5247 9.62667 79.5247 8.64C79.5247 7.66667 80.018 7.18 81.0047 7.18H83.1047V3.8C83.1047 2.81333 83.5914 2.32 84.5647 2.32C85.5514 2.32 86.0447 2.81333 86.0447 3.8V7.18H90.7847C91.758 7.18 92.2447 7.66667 92.2447 8.64C92.2447 9.62667 91.758 10.12 90.7847 10.12H86.0447V19.52C86.0447 21.28 86.3647 22.48 87.0047 23.12C87.658 23.7467 88.858 24.06 90.6047 24.06C91.0847 24.06 91.4514 24.18 91.7047 24.42C91.958 24.6467 92.0847 25.0133 92.0847 25.52C92.0847 26.5067 91.5914 27 90.6047 27ZM103.13 27C100.944 27 99.3236 26.4733 98.2703 25.42C97.217 24.3667 96.6903 22.7467 96.6903 20.56C96.6903 18.3733 97.2103 16.7533 98.2503 15.7C99.3036 14.6467 100.93 14.12 103.13 14.12H111.79C111.737 12.6 111.364 11.5533 110.67 10.98C109.977 10.4067 108.797 10.12 107.13 10.12H104.81C103.357 10.12 102.277 10.24 101.57 10.48C100.877 10.72 100.41 11.14 100.17 11.74C99.9836 12.22 99.777 12.56 99.5503 12.76C99.337 12.9467 99.0036 13.04 98.5503 13.04C98.057 13.04 97.6703 12.9067 97.3903 12.64C97.1236 12.36 97.0436 11.9933 97.1503 11.54C97.4703 10.0333 98.257 8.93333 99.5103 8.24C100.764 7.53333 102.53 7.18 104.81 7.18H107.13C109.73 7.18 111.65 7.8 112.89 9.04C114.13 10.28 114.75 12.2 114.75 14.8V25.52C114.75 26.5067 114.264 27 113.29 27C112.304 27 111.81 26.5067 111.81 25.52V24.26C110.437 26.0867 108.29 27 105.37 27H103.13ZM103.13 24.06H105.37C106.45 24.06 107.444 23.9533 108.35 23.74C109.257 23.5267 110.017 23.1533 110.63 22.62C111.244 22.0867 111.637 21.34 111.81 20.38V17.06H103.13C101.757 17.06 100.83 17.3067 100.35 17.8C99.8703 18.28 99.6303 19.2 99.6303 20.56C99.6303 21.9333 99.8703 22.86 100.35 23.34C100.83 23.82 101.757 24.06 103.13 24.06ZM127.143 35C125.543 35 124.296 34.6733 123.403 34.02C122.509 33.3667 121.949 32.3667 121.723 31.02C121.643 30.5267 121.729 30.14 121.983 29.86C122.249 29.58 122.636 29.44 123.143 29.44C123.596 29.44 123.929 29.56 124.143 29.8C124.356 30.04 124.529 30.4 124.663 30.88C124.796 31.3333 125.049 31.64 125.423 31.8C125.809 31.9733 126.383 32.06 127.143 32.06H134.583C135.636 32.06 136.329 31.88 136.663 31.52C137.009 31.1733 137.183 30.48 137.183 29.44V24.44C136.503 25.2667 135.623 25.9 134.543 26.34C133.463 26.78 132.196 27 130.743 27H129.223C126.623 27 124.696 26.38 123.443 25.14C122.203 23.9 121.583 21.9867 121.583 19.4V14.8C121.583 12.1733 122.196 10.2467 123.423 9.02C124.663 7.79333 126.596 7.18 129.223 7.18H132.503C133.569 7.18 134.489 7.33333 135.263 7.64C136.036 7.93333 136.676 8.39333 137.183 9.02V8.64C137.183 7.66667 137.676 7.18 138.663 7.18C139.636 7.18 140.123 7.66667 140.123 8.64V29.44C140.123 31.3333 139.669 32.7333 138.763 33.64C137.869 34.5467 136.476 35 134.583 35H127.143ZM129.223 24.06H130.743C132.609 24.06 134.149 23.8067 135.363 23.3C136.576 22.78 137.183 21.98 137.183 20.9V13.34C137.183 12.1133 136.783 11.2733 135.983 10.82C135.183 10.3533 134.023 10.12 132.503 10.12H129.223C127.436 10.12 126.203 10.4467 125.523 11.1C124.856 11.7533 124.523 12.9867 124.523 14.8V19.4C124.523 21.16 124.856 22.38 125.523 23.06C126.189 23.7267 127.423 24.06 129.223 24.06ZM149.913 18.28V19.4C149.913 21.1733 150.247 22.3933 150.913 23.06C151.58 23.7267 152.813 24.06 154.613 24.06H157.893C159.36 24.06 160.433 23.9067 161.113 23.6C161.807 23.28 162.253 22.7267 162.453 21.94C162.56 21.5 162.727 21.16 162.953 20.92C163.193 20.68 163.547 20.56 164.013 20.56C164.507 20.56 164.88 20.6933 165.133 20.96C165.387 21.2133 165.473 21.5867 165.393 22.08C165.14 23.7467 164.387 24.9867 163.133 25.8C161.893 26.6 160.147 27 157.893 27H154.613C152.013 27 150.087 26.38 148.833 25.14C147.593 23.9 146.973 21.9867 146.973 19.4V14.8C146.973 12.16 147.593 10.2267 148.833 9C150.087 7.76 152.013 7.15333 154.613 7.18H157.893C160.493 7.18 162.413 7.8 163.653 9.04C164.893 10.2667 165.513 12.1867 165.513 14.8V16.8C165.513 17.7867 165.027 18.28 164.053 18.28H149.913ZM154.613 10.12C152.813 10.0933 151.58 10.4133 150.913 11.08C150.247 11.7467 149.913 12.9867 149.913 14.8V15.34H162.573V14.8C162.573 13 162.24 11.7733 161.573 11.12C160.92 10.4533 159.693 10.12 157.893 10.12H154.613Z" fill="white"/>
</svg>
